<?xml version="1.0" encoding="UTF-8"?>
<svg id="Layer_1" data-name="Layer 1" xmlns="http://www.w3.org/2000/svg" viewBox="0 0 566.22 566.22">
  <defs>
    <style>
      .cls-1 {
        fill: #191628;
      }

      .cls-2 {
        fill: #fff;
      }

      .cls-3 {
        fill: #248aa1;
      }

      .cls-4 {
        fill: #1f8aa2;
      }
    </style>
  </defs>
  <rect class="cls-1" x="-73.17" y="-16.92" width="712.56" height="600.05"/>
  <g>
    <path class="cls-2" d="m276.06,421.53c.99,2.89,1.35,6.09.08,8.96-.57,1.29-1.48,2.39-2.46,3.41-3,3.1-6.52,3.27-6.99,3.27-.27,0-.54,0-.8,0h-5.55c-.24,0-.49,0-.73,0-28.68.03-57.36.13-86.04.05-10.58-.03-21.17-.41-31.75-.7-6.08-.17-9.95-3.59-10.96-9.72-.37-2.21-.51-4.49-.51-6.75-.19-65.5-.38-131-.47-196.51-.03-25.71.18-51.43.23-77.15.02-10.37,5.59-15.92,15.92-15.92,40.15-.02,80.3-.08,120.45-.14,7.15-.01,9.8,2.16,10.93,9.02,1.08,6.56-2.7,10.83-9.87,10.82-28.68-.05-57.35-.21-86.03-.29-11.09-.04-22.17-.01-33.54-.01v267.03c1.43.09,2.91.26,4.41.26,37.88.01,75.78,0,113.67-.03,4.02,0,8.31-.57,10.02,4.4Z"/>
    <path class="cls-2" d="m437.97,390.36c-.25,7.11-.49,14.24-.7,21.38-.25,8.61-2.66,19.3-11.77,22.58-3.92,1.41-8.33.86-11.16-2.38-2.4-2.75-3.44-6.52-2.27-10.01.76-2.26,2.08-4.28,3.09-6.43,2.59-5.51,3.1-11.77,3.08-17.86-.03-6.55.01-13.06.1-19.59.07-5.22-.5-10.73,1.67-15.65,1.61-3.64,4.98-6.86,9.2-6.52,4.82.39,8.83,4.49,8.86,9.38.02,4.96.02,9.93.02,14.89,0,2.48.08,4.97,0,7.45-.03.92-.06,1.85-.1,2.77Z"/>
    <g>
      <path class="cls-2" d="m310.02,334.72c10.24,11.48,19.96,22.55,29.89,33.45,7,7.68,14.49,14.93,21.27,22.79,1.7,1.97,2.77,6.13,1.84,8.3-1.06,2.48-4.46,4.99-7.23,5.53-7.28,1.41-13.73-1.22-18.74-6.75-7.92-8.75-15.8-17.54-23.55-26.44-8.78-10.08-17.27-20.41-26.21-30.34-1.55-1.72-4.68-2.77-7.1-2.81-14.97-.28-29.48-2.12-42.04-11.21-18.8-13.61-26.48-39.99-18.65-61.88,8.97-25.08,27.06-38.41,52.94-41.35,19.68-2.23,38.73.37,54.91,12.89,18.81,14.56,24.41,34.74,20.57,57.23-3.44,20.17-16.29,33.21-35.7,39.69-.48.16-.95.38-2.21.9Zm-28.76-16.87c12,.33,24.39-1.04,34.19-8.61,8.06-6.22,13.93-15.8,14.51-26.06.7-12.43-5.88-24.29-15.78-31.48-16.33-11.87-44.85-10.6-61.14.68-15.67,10.85-22.56,34.64-11.18,50.88,5.88,8.39,18.43,12.39,28.05,13.67,3.58.48,7.42.82,11.35.92Z"/>
      <path class="cls-4" d="m185.32,91.09h187.46c11.04,0,20.01,8.97,20.01,20.01v20.11h-227.48v-20.11c0-11.04,8.97-20.01,20.01-20.01Z"/>
      <path class="cls-4" d="m164.76,437.24h227.48v19.96c0,11.13-9.03,20.16-20.16,20.16h-187.16c-11.13,0-20.16-9.03-20.16-20.16v-19.96h0Z"/>
      <path class="cls-3" d="m108.08,182.28h21.66v213.94h-21.66c-10.96,0-19.86-8.9-19.86-19.86v-174.22c0-10.96,8.9-19.86,19.86-19.86Z"/>
      <path class="cls-3" d="m457.58,181.86h21.66v213.94h-21.66c-10.96,0-19.86-8.9-19.86-19.86v-174.22c0-10.96,8.9-19.86,19.86-19.86Z" transform="translate(916.97 577.66) rotate(-180)"/>
    </g>
  </g>
</svg>